HIERARCHY
ROOT Hips
{
	OFFSET 0.00000 0.00000 0.00000
	CHANNELS 6 Xposition Yposition Zposition Zrotation Yrotation Xrotation 
	JOINT LHipJoint
	{
		OFFSET 0 0 0
		CHANNELS 3 Zrotation Yrotation Xrotation
		JOINT LeftHip
		{
			OFFSET 1.57338 -1.94743 0.52196
			CHANNELS 3 Zrotation Yrotation Xrotation
			JOINT LeftKnee
			{
				OFFSET 2.60333 -7.15259 0.00000
				CHANNELS 3 Zrotation Yrotation Xrotation
				JOINT LeftAnkle
				{
					OFFSET 2.77855 -7.63400 0.00000
					CHANNELS 3 Zrotation Yrotation Xrotation
					JOINT LeftToe
					{
						OFFSET 0.19847 -0.54529 2.28466
						CHANNELS 3 Zrotation Yrotation Xrotation
						End Site
						{
							OFFSET 0.00000 -0.00000 1.17993
						}
					}
				}
			}
		}
	}
	JOINT RHipJoint
	{
		OFFSET 0 0 0
		CHANNELS 3 Zrotation Yrotation Xrotation
		JOINT RightHip
		{
			OFFSET -1.61527 -1.94743 0.52196
			CHANNELS 3 Zrotation Yrotation Xrotation
			JOINT RightKnee
			{
				OFFSET -2.53829 -6.97390 0.00000
				CHANNELS 3 Zrotation Yrotation Xrotation
				JOINT RightAnkle
				{
					OFFSET -2.80762 -7.71387 0.00000
					CHANNELS 3 Zrotation Yrotation Xrotation
					JOINT RightToe
					{
						OFFSET -0.30536 -0.83898 2.28801
						CHANNELS 3 Zrotation Yrotation Xrotation
						End Site
						{
							OFFSET -0.00000 -0.00000 1.21323
						}
					}
				}
			}
		}
	}
	JOINT lowerback
	{
		OFFSET 0 0 0
		CHANNELS 3 Zrotation Yrotation Xrotation
		JOINT Chest
		{
			OFFSET -0.04381 1.99497 -0.19778
			CHANNELS 3 Zrotation Yrotation Xrotation
			JOINT Chest2
			{
				OFFSET -0.01959 2.01295 -0.04372
				CHANNELS 3 Zrotation Yrotation Xrotation
				JOINT lowerneck
				{
					OFFSET 0 0 0
					CHANNELS 3 Zrotation Yrotation Xrotation
					JOINT Neck
					{
						OFFSET -0.05459 1.76913 0.09708
						CHANNELS 3 Zrotation Yrotation Xrotation
						JOINT Head
						{
							OFFSET 0.09461 1.77368 -0.11172
							CHANNELS 3 Zrotation Yrotation Xrotation
							End Site
							{
								OFFSET 0.03812 1.78157 -0.04834
							}
						}
					}
				}
				JOINT LeftCollar
				{
					OFFSET 0 0 0
					CHANNELS 3 Zrotation Yrotation Xrotation
					JOINT LeftShoulder
					{
						OFFSET 3.50922 1.24034 -0.28866
CHANNELS 3 Zrotation Xrotation Yrotation
						JOINT LeftElbow
						{
OFFSET 0 -5.401880 0.000000
CHANNELS 3 Zrotation Xrotation Yrotation
							JOINT LeftWrist
							{
OFFSET 0 -3.685590 0.000000
CHANNELS 3 Zrotation Xrotation Yrotation
								JOINT lhand
								{
									OFFSET 0 0 0
CHANNELS 3 Zrotation Xrotation Yrotation
									JOINT LFingers
									{
OFFSET 0 -0.617530 0.000000
CHANNELS 3 Zrotation Xrotation Yrotation
										End Site
										{
OFFSET 0 -0.497870 0.000000
										}
									}
								}
								JOINT LThumb
								{
OFFSET 0 0.000000 0.000000
CHANNELS 3 Zrotation Xrotation Yrotation
									End Site
									{
OFFSET 0 -0.505470 0.505470
									}
								}
							}
						}
					}
				}
				JOINT RightCollar
				{
					OFFSET 0 0 0
					CHANNELS 3 Zrotation Yrotation Xrotation
					JOINT RightShoulder
					{
						OFFSET -2.95373 1.39649 -0.27346
CHANNELS 3 Zrotation Xrotation Yrotation
						JOINT RightElbow
						{
OFFSET 0 -6.106700 -0.000000
CHANNELS 3 Zrotation Xrotation Yrotation
							JOINT RightWrist
							{
OFFSET 0 -3.630520 0.000000
CHANNELS 3 Zrotation Xrotation Yrotation
								JOINT rhand
								{
									OFFSET 0 0 0
CHANNELS 3 Zrotation Xrotation Yrotation
									JOINT RFingers
									{
OFFSET 0 -0.583850 0.000000
CHANNELS 3 Zrotation Xrotation Yrotation
										End Site
										{
OFFSET 0 -0.470710 0.000000
										}
									}
								}
								JOINT RThumb
								{
OFFSET 0 0.000000 0.000000
CHANNELS 3 Zrotation Xrotation Yrotation
									End Site
									{
OFFSET 0 -0.477900 0.477900
									}
								}
							}
						}
					}
				}
			}
		}
	}
}
MOTION
Frames: 5
Frame Time: 0.008333333333333333
0.887300 18.982400 -1.466700 0.186400 -7.052600 2.890400 0.000000 0.000000 0.000000 -21.393700 -5.620600 1.480700 0.411500 4.117600 11.407800 0.144800 12.740000 -19.829900 0.019500 -0.902200 -2.479700 0.000000 0.000000 0.000000 20.454900 20.545400 3.088200 -0.693400 -5.323200 14.832800 -0.060300 -12.340500 -18.317600 -0.023100 0.980300 -2.694600 -2.024600 0.099200 3.256400 -0.844900 0.016100 -1.213700 0.265500 0.038900 -3.074600 -10.778600 -6.268500 -9.542600 11.451600 -8.527700 12.082200 4.675800 -3.872700 6.185600 0.000000 0.000000 0.000000 1.865000 1.794200 -3.097700 11.224600 -18.631600 1.847000 21.437900 15.112500 -23.842300 0.000000 0.000000 0.000000 -7.125000 0.000000 0.000000 -8.423400 55.179700 2.116400 0.000000 0.000000 0.000000 -4.329100 2.348700 21.097000 -13.399100 -21.869200 -2.600100 -27.498200 21.382600 0.408500 0.000000 0.000000 0.000000 7.125000 0.000000 -0.000000 -0.738500 30.439900 -0.262600
0.890863 18.981847 -1.467437 0.232231 -7.049651 2.854091 0.000000 0.000000 0.000000 -21.456242 -5.581895 1.499192 0.412360 4.121901 11.419903 0.148916 12.696688 -19.820316 0.019930 -0.911600 -2.505687 0.000000 0.000000 0.000000 20.389164 20.489063 3.041939 -0.701018 -5.351768 14.914632 -0.060423 -12.309229 -18.276745 -0.024820 1.016486 -2.794187 -2.041311 0.116218 3.326375 -0.864252 0.035759 -1.201351 0.253704 0.048914 -3.101816 -10.737131 -6.282323 -9.577557 11.387338 -8.541032 12.096576 4.645758 -3.880257 6.193034 0.000000 0.000000 0.000000 1.892585 1.744007 -3.120861 11.195910 -18.587858 1.837846 21.401591 15.179772 -24.077353 0.000000 0.000000 0.000000 -7.125000 0.000000 0.000000 -8.558313 55.413647 2.199953 0.000000 0.000000 0.000000 -4.333093 2.373704 21.122926 -13.442965 -21.932847 -2.616442 -26.981464 21.325772 0.405551 0.000000 0.000000 0.000000 7.125000 0.000000 0.000000 -0.329277 30.434678 -0.117059
0.893718 18.980974 -1.468723 0.269943 -7.047594 2.819613 0.000000 0.000000 0.000000 -21.503848 -5.527478 1.514368 0.411596 4.118196 11.409454 0.140842 12.696237 -19.728509 0.028937 -1.064266 -2.926139 0.000000 0.000000 0.000000 20.336967 20.442196 2.996272 -0.709208 -5.382256 15.002091 -0.062192 -12.275580 -18.253113 -0.026174 1.044392 -2.870972 -2.065203 0.128478 3.404584 -0.874273 0.048535 -1.198243 0.255883 0.055932 -3.143052 -10.707715 -6.286586 -9.594788 11.328726 -8.541761 12.109603 4.621296 -3.882484 6.196259 0.000000 0.000000 0.000000 1.912004 1.724302 -3.158454 11.177717 -18.560126 1.832054 21.360617 15.176966 -24.186064 0.000000 0.000000 0.000000 -7.125000 0.000000 0.000000 -8.645813 55.516976 2.243960 0.000000 0.000000 0.000000 -4.345595 2.408749 21.164038 -13.491931 -22.003791 -2.634751 -26.640770 21.183908 0.206845 0.000000 0.000000 0.000000 7.125000 0.000000 0.000000 -0.059386 30.211239 -0.021171
0.895376 18.979561 -1.470935 0.293964 -7.047041 2.788219 0.000000 0.000000 0.000000 -21.526272 -5.446567 1.523952 0.408094 4.100994 11.360982 0.112213 12.768055 -19.498064 0.052405 -1.458499 -4.011708 0.000000 0.000000 0.000000 20.307601 20.411293 2.951609 -0.718362 -5.415985 15.099037 -0.066739 -12.237920 -18.258519 -0.026912 1.058338 -2.909308 -2.101204 0.132717 3.496676 -0.868559 0.049702 -1.210714 0.281625 0.057898 -3.207928 -10.698623 -6.274729 -9.582133 11.279639 -8.521241 12.120354 4.606245 -3.875726 6.192389 0.000000 0.000000 0.000000 1.917656 1.756003 -3.220382 11.177226 -18.559388 1.831931 21.311776 15.055999 -24.081746 0.000000 0.000000 0.000000 -7.125000 0.000000 0.000000 -8.653370 55.400063 2.221291 0.000000 0.000000 0.000000 -4.372442 2.460724 21.230758 -13.549496 -22.087036 -2.656376 -26.596905 20.898662 -0.321932 0.000000 0.000000 0.000000 7.125000 0.000000 0.000000 -0.024429 29.619859 -0.009007
0.897127 18.978651 -1.472186 0.335048 -7.033497 2.759616 0.000000 0.000000 0.000000 -21.568137 -5.367166 1.525394 0.405873 4.089967 11.329983 0.095157 12.783244 -19.322556 0.074136 -1.744779 -4.801138 0.000000 0.000000 0.000000 20.259435 20.384508 2.918335 -0.727058 -5.448066 15.191088 -0.075036 -12.196097 -18.304499 -0.027420 1.068167 -2.936345 -2.149007 0.128494 3.558807 -0.872360 0.040074 -1.196884 0.304988 0.054146 -3.228571 -10.654674 -6.261499 -9.603738 11.215456 -8.496193 12.102150 4.580123 -3.865355 6.182663 0.000000 0.000000 0.000000 1.921296 1.740680 -3.225954 11.158894 -18.531388 1.826091 21.433372 15.088134 -23.818975 0.000000 0.000000 0.000000 -7.125000 0.000000 0.000000 -8.419998 55.154339 2.111847 0.000000 0.000000 0.000000 -4.402354 2.451083 21.360236 -13.587712 -22.142287 -2.670774 -26.359776 20.773790 -0.173668 0.000000 0.000000 0.000000 7.125000 0.000000 0.000000 0.162623 29.785204 0.058735
